<svg width="100" height="18" viewBox="0 0 100 18" fill="none" xmlns="http://www.w3.org/2000/svg">
<path d="M36 0H99.8182V18H36V0Z" fill="white"/>
<path d="M4.12455 12.0657L1.5741 5.10624V16.0088H0V2.22782H2.07224L4.90164 10.1533L7.73104 2.22782H9.76342V16.0088H8.18932V5.08653L5.67873 12.0657H4.12455Z" fill="white"/>
<path d="M22.3794 14.9244V16.1665C21.9677 16.2848 21.6356 16.3439 21.3832 16.3439C20.2674 16.3439 19.6497 15.8248 19.5301 14.7864C18.9456 15.3516 18.3744 15.759 17.8165 16.0088C17.2586 16.2453 16.6476 16.3636 15.9834 16.3636C14.9739 16.3636 14.1503 16.1008 13.5127 15.575C12.8883 15.0361 12.5762 14.287 12.5762 13.3275C12.5762 12.6177 12.7289 12.0526 13.0345 11.632C13.34 11.1982 13.7119 10.8762 14.1503 10.6659C14.6019 10.4425 15.027 10.2979 15.4255 10.2322C15.6115 10.2059 15.8971 10.1665 16.2823 10.1139C16.6675 10.0482 17.1524 9.9759 17.7368 9.89704C18.401 9.80504 18.8593 9.68018 19.1117 9.52245C19.3774 9.36473 19.5102 9.12158 19.5102 8.79299V8.43812C19.5102 7.41292 18.7132 6.90033 17.1191 6.90033C16.3487 6.90033 15.7642 7.05148 15.3657 7.35378C14.9805 7.64294 14.7547 8.10296 14.6883 8.73384H13.0145C13.0411 7.53779 13.433 6.68346 14.1901 6.17087C14.9606 5.64513 15.9635 5.38226 17.1989 5.38226C18.4874 5.38226 19.4637 5.62541 20.1279 6.11172C20.7921 6.58488 21.1241 7.28149 21.1241 8.20153V14.1555C21.1241 14.6944 21.423 14.9639 22.0208 14.9639C22.1271 14.9639 22.2466 14.9507 22.3794 14.9244ZM19.5102 12.4206V10.7842C19.1648 10.9419 18.7331 11.0668 18.215 11.1588C17.7103 11.2508 17.2387 11.3231 16.8003 11.3757C16.0299 11.4677 15.4122 11.6451 14.9473 11.908C14.4956 12.1709 14.2698 12.6309 14.2698 13.2881C14.2698 13.8007 14.4558 14.2015 14.8277 14.4907C15.213 14.7798 15.7377 14.9244 16.4018 14.9244C16.8933 14.9244 17.3715 14.8193 17.8365 14.609C18.3147 14.3855 18.7132 14.0832 19.032 13.7021C19.3508 13.3209 19.5102 12.8938 19.5102 12.4206Z" fill="white"/>
<path d="M28.699 4.19934V2.22782H30.6916V4.19934H28.699ZM30.5123 5.67798V14.6681H33.7202V16.0088H25.2918V14.6681H28.8784V7.01862H25.2918V5.67798H30.5123Z" fill="white"/>
<path d="M48.7937 6.07229H46.9008C46.7016 5.32311 46.3894 4.71194 45.9643 4.23877C45.5392 3.76561 44.8817 3.52903 43.9917 3.52903C43.115 3.52903 42.4043 3.76561 41.8597 4.23877C41.3284 4.71194 40.9431 5.37568 40.704 6.23001C40.4649 7.07119 40.3454 8.04381 40.3454 9.14786C40.3454 11.0142 40.6575 12.414 41.2819 13.3472C41.9062 14.2804 42.8095 14.747 43.9917 14.747C44.9216 14.747 45.6123 14.4578 46.0639 13.8795C46.5156 13.3012 46.841 12.4535 47.0403 11.3363H48.9332C48.7472 13.0055 48.2159 14.2607 47.3392 15.1019C46.4624 15.943 45.34 16.3636 43.9718 16.3636C42.763 16.3636 41.7468 16.0745 40.9232 15.4962C40.0996 14.9047 39.4753 14.0701 39.0502 12.9923C38.6251 11.9146 38.4126 10.6396 38.4126 9.16758C38.4126 8.18182 38.5122 7.24863 38.7115 6.36802C38.924 5.4874 39.2495 4.71851 39.6878 4.06134C40.1262 3.39102 40.704 2.86528 41.4213 2.48412C42.1386 2.10296 43.0154 1.91238 44.0515 1.91238C44.9813 1.91238 45.7717 2.09639 46.4226 2.4644C47.0735 2.83242 47.5982 3.33187 47.9967 3.96276C48.3952 4.5805 48.6609 5.28368 48.7937 6.07229Z" fill="black"/>
<path d="M55.8107 5.36254C56.8867 5.36254 57.77 5.6057 58.4608 6.092C59.1648 6.56517 59.6829 7.21577 60.015 8.04381C60.3603 8.87185 60.533 9.81161 60.533 10.8631C60.533 11.9014 60.3603 12.8412 60.015 13.6824C59.6829 14.5104 59.1648 15.1676 58.4608 15.6539C57.77 16.1271 56.8867 16.3636 55.8107 16.3636C54.748 16.3636 53.8647 16.1271 53.1606 15.6539C52.4566 15.1676 51.9319 14.5104 51.5865 13.6824C51.2544 12.8412 51.0884 11.9014 51.0884 10.8631C51.0884 9.81161 51.2544 8.87185 51.5865 8.04381C51.9319 7.21577 52.4566 6.56517 53.1606 6.092C53.8647 5.6057 54.748 5.36254 55.8107 5.36254ZM55.8107 6.88061C55.1067 6.88061 54.5355 7.06462 54.0971 7.43264C53.6588 7.80066 53.3333 8.28697 53.1208 8.89157C52.9215 9.49617 52.8219 10.1533 52.8219 10.8631C52.8219 11.5597 52.9215 12.2169 53.1208 12.8346C53.3333 13.4392 53.6588 13.9255 54.0971 14.2935C54.5355 14.6616 55.1067 14.8456 55.8107 14.8456C56.5147 14.8456 57.0859 14.6616 57.5243 14.2935C57.9626 13.9255 58.2815 13.4392 58.4807 12.8346C58.6932 12.2169 58.7995 11.5597 58.7995 10.8631C58.7995 10.1533 58.6932 9.49617 58.4807 8.89157C58.2815 8.28697 57.9626 7.80066 57.5243 7.43264C57.0859 7.06462 56.5147 6.88061 55.8107 6.88061Z" fill="black"/>
<path d="M70.8975 1.63636H72.5513V16.0088H71.0768V14.5498C70.2399 15.759 69.1308 16.3636 67.7493 16.3636C66.7264 16.3636 65.8763 16.1205 65.1988 15.6342C64.5214 15.1347 64.0166 14.4578 63.6845 13.6035C63.3657 12.7492 63.2063 11.7963 63.2063 10.7448C63.2063 9.74589 63.3723 8.84556 63.7044 8.04381C64.0365 7.22892 64.5346 6.57831 65.1988 6.092C65.8763 5.6057 66.7065 5.36254 67.6895 5.36254C69.1108 5.36254 70.1802 5.89485 70.8975 6.95947V1.63636ZM67.9684 6.90033C67.3176 6.90033 66.7663 7.07776 66.3146 7.43264C65.863 7.77437 65.5176 8.24754 65.2785 8.85214C65.0527 9.44359 64.9398 10.1139 64.9398 10.8631C64.9398 11.5597 65.0461 12.2103 65.2586 12.8149C65.4711 13.4195 65.7966 13.9058 66.2349 14.2738C66.6866 14.6418 67.2711 14.8258 67.9884 14.8258C68.6924 14.8258 69.257 14.6353 69.682 14.2541C70.1071 13.8598 70.4126 13.3669 70.5986 12.7755C70.7978 12.1709 70.8975 11.5531 70.8975 10.9222C70.8975 10.2256 70.7978 9.57503 70.5986 8.97043C70.3993 8.35268 70.0872 7.85323 69.6621 7.47207C69.237 7.09091 68.6725 6.90033 67.9684 6.90033Z" fill="black"/>
<path d="M84.988 12.8149C84.8153 13.8927 84.3304 14.7536 83.5334 15.3976C82.7497 16.0416 81.7468 16.3636 80.5247 16.3636C79.4753 16.3636 78.5986 16.1336 77.8945 15.6736C77.1905 15.2004 76.6592 14.5564 76.3005 13.7415C75.9551 12.9266 75.7825 11.9934 75.7825 10.9419C75.7825 9.78532 75.9817 8.79299 76.3802 7.96495C76.7787 7.13691 77.3366 6.49945 78.0539 6.05257C78.7713 5.59255 79.6081 5.36254 80.5645 5.36254C81.6405 5.36254 82.5172 5.61227 83.1947 6.11172C83.8854 6.61117 84.3902 7.30778 84.709 8.20153C85.0411 9.09529 85.2071 10.1402 85.2071 11.3363H77.516C77.5425 12.3483 77.8082 13.1895 78.313 13.8598C78.8177 14.517 79.5749 14.8456 80.5845 14.8456C81.9527 14.8456 82.8626 14.1687 83.3142 12.8149H84.988ZM80.5446 6.88061C79.6148 6.88061 78.9041 7.18291 78.4126 7.78751C77.9211 8.39211 77.6355 9.12815 77.5558 9.99562H83.4139C83.4139 9.41731 83.2943 8.89814 83.0552 8.43812C82.8294 7.96495 82.5039 7.59036 82.0789 7.31435C81.6538 7.02519 81.1424 6.88061 80.5446 6.88061Z" fill="black"/>
<path d="M89.0759 16.0088V5.67798H90.6102V7.90581C90.9556 7.16977 91.4537 6.56517 92.1046 6.092C92.7555 5.61884 93.506 5.38226 94.3562 5.38226C95.5517 5.38226 96.4616 5.68456 97.0859 6.28916C97.7235 6.89376 98.0888 7.70865 98.1818 8.73384H96.528C96.4085 8.1161 96.1627 7.64294 95.7908 7.31435C95.4321 6.98576 94.9008 6.82147 94.1967 6.82147C93.506 6.82147 92.9016 7.00548 92.3835 7.37349C91.8655 7.72837 91.4603 8.22125 91.1681 8.85214C90.8891 9.46988 90.7497 10.1862 90.7497 11.0011V16.0088H89.0759Z" fill="black"/>
</svg>
